<?xml version="1.0" standalone="no"?>
<!DOCTYPE svg PUBLIC "-//W3C//DTD SVG 20010904//EN"
 "http://www.w3.org/TR/2001/REC-SVG-20010904/DTD/svg10.dtd">
<svg version="1.0" xmlns="http://www.w3.org/2000/svg"
 width="640.000000pt" height="480.000000pt" viewBox="0 0 640.000000 480.000000"
 preserveAspectRatio="xMidYMid meet">

<g transform="translate(0.000000,480.000000) scale(0.100000,-0.100000)"
fill="#37003c" stroke="none">
<path d="M2622 4563 c-12 -32 -40 -114 -63 -183 -23 -69 -45 -128 -48 -132 -4
-4 -90 50 -191 122 -150 104 -186 125 -188 110 -2 -10 8 -88 22 -174 14 -86
26 -159 26 -161 0 -2 -35 21 -77 52 -76 54 -193 119 -193 107 0 -3 13 -24 29
-47 38 -56 102 -186 131 -267 13 -36 24 -66 25 -68 1 -1 49 20 106 47 331 158
680 198 1044 120 49 -10 90 -19 92 -19 2 0 3 13 3 30 0 48 36 220 63 300 14
41 23 77 20 80 -3 3 -54 -46 -114 -107 -99 -102 -109 -110 -109 -85 -1 15 -3
52 -6 82 -3 30 -8 100 -12 155 l-7 99 -154 -169 c-84 -94 -156 -171 -160 -172
-3 -1 -34 44 -69 100 -34 56 -82 133 -105 170 l-44 69 -21 -59z"/>
<path d="M2775 4029 c-178 -13 -398 -69 -531 -137 l-59 -30 43 -12 c53 -16
117 -70 143 -121 l20 -40 -50 25 c-101 51 -189 43 -253 -25 -63 -66 -74 -189
-27 -314 12 -31 19 -58 17 -60 -2 -3 -20 9 -40 25 -92 76 -124 246 -72 374 12
31 -74 -36 -172 -132 -100 -98 -187 -211 -260 -335 -61 -103 -63 -99 36 -112
30 -4 58 -9 62 -12 4 -2 -17 -41 -48 -85 -100 -146 -185 -340 -229 -518 -25
-103 -32 -180 -17 -180 4 0 60 16 124 36 65 21 120 35 124 32 3 -3 0 -35 -7
-69 -17 -96 -15 -413 5 -543 24 -155 88 -346 115 -346 18 0 128 101 209 192
45 51 117 141 159 200 50 70 80 103 84 95 12 -20 47 -225 54 -308 7 -90 -7
-256 -36 -427 -25 -145 -31 -132 96 -183 227 -90 507 -95 760 -12 103 33 207
81 279 127 31 20 60 36 65 36 5 0 19 -43 31 -95 12 -52 26 -95 31 -95 4 0 44
27 87 60 192 144 348 364 421 590 25 76 51 194 51 231 0 14 3 28 6 32 3 3 34
-24 67 -60 l62 -66 22 74 c54 175 78 431 58 604 -12 98 -52 258 -90 357 -56
145 -201 408 -226 408 -4 0 -9 -15 -11 -32 -2 -18 -7 -33 -13 -32 -5 0 -31 26
-58 57 l-50 57 23 18 c20 16 21 22 11 56 -5 22 -20 49 -32 62 -18 19 -25 21
-48 13 -14 -6 -36 -20 -49 -32 -23 -22 -23 -22 -55 -3 -56 34 -101 56 -104 52
-11 -11 115 -169 174 -218 37 -31 83 -72 102 -92 l33 -35 -43 16 c-59 21 -246
21 -313 0 l-48 -16 -109 112 c-96 100 -108 116 -109 148 0 23 9 50 25 73 19
28 21 36 9 36 -21 0 -85 -28 -104 -45 -15 -13 -28 -9 -120 38 -128 64 -158 66
-262 14 -84 -43 -122 -72 -113 -87 4 -6 34 -25 68 -42 57 -28 74 -32 200 -40
l139 -8 68 -61 c37 -33 91 -86 118 -118 l50 -58 -51 15 c-39 11 -100 15 -237
14 -215 -1 -278 10 -357 64 -71 49 -123 128 -123 189 0 21 -6 25 -47 30 -94
13 -94 12 -28 72 33 29 85 65 115 79 30 15 57 28 59 30 2 2 -11 15 -28 29 -17
15 -31 30 -31 33 0 9 114 85 165 110 59 29 198 71 258 78 63 8 96 -7 259 -114
78 -52 109 -68 116 -59 6 7 17 38 25 70 9 33 18 61 21 64 14 15 239 -134 354
-234 l63 -55 -22 53 c-37 93 -56 154 -64 200 -4 24 -17 55 -29 68 -27 30 -117
91 -186 126 -51 26 -252 97 -258 91 -1 -2 4 -21 12 -43 11 -33 27 -113 22
-113 0 0 -35 32 -76 71 -108 103 -136 117 -245 121 -49 1 -130 0 -180 -3z
m647 -1099 c14 -11 58 -36 97 -56 l71 -36 0 -103 0 -104 -102 -76 c-136 -101
-234 -150 -305 -150 l-54 0 -43 80 c-100 189 -116 220 -116 232 0 14 159 122
244 165 51 26 155 65 177 67 4 1 18 -8 31 -19z m455 -46 c41 -118 49 -291 17
-389 -21 -65 -31 -74 -43 -43 -5 14 -39 62 -75 106 l-66 81 0 98 1 98 67 47
c37 26 71 46 76 44 5 -1 16 -20 23 -42z m-154 -482 c9 -10 28 -44 43 -76 25
-54 26 -63 15 -108 -18 -79 -59 -155 -118 -218 -30 -33 -58 -58 -62 -55 -4 2
-9 28 -9 57 -2 54 -20 158 -28 158 -2 0 -23 -15 -47 -33 -43 -33 -118 -69
-168 -82 -25 -6 -29 -1 -78 91 -28 53 -51 98 -51 100 0 2 9 4 20 4 49 0 194
78 285 154 26 22 40 25 106 26 60 0 79 -4 92 -18z"/>
<path d="M4772 2610 c-90 -41 -96 -178 -10 -234 29 -19 95 -26 130 -14 82 29
114 156 58 228 l-19 25 -22 -22 c-20 -19 -21 -26 -11 -48 18 -39 14 -80 -8
-100 -11 -10 -21 -16 -21 -14 -1 2 -3 42 -3 89 -1 47 -5 91 -10 98 -10 17 -34
15 -84 -8z m38 -122 l-1 -63 -25 28 c-25 29 -25 55 -2 85 20 25 28 11 28 -50z"/>
<path d="M4720 2296 l0 -33 81 -6 c112 -9 150 -46 98 -98 -18 -18 -30 -20
-102 -17 l-82 3 -3 -37 -3 -38 96 0 c112 0 149 14 171 65 29 71 13 133 -45
172 -29 20 -47 23 -122 23 l-89 0 0 -34z"/>
<path d="M4706 2034 c-10 -26 -7 -54 6 -54 6 0 1 -11 -12 -25 -18 -20 -24 -37
-24 -74 0 -142 172 -191 252 -71 19 28 23 43 18 78 -6 47 3 53 34 22 27 -27
25 -70 -6 -115 l-25 -38 22 -23 23 -24 28 27 c58 56 65 171 12 224 -25 25 -49
33 -171 59 -79 16 -145 30 -147 30 -2 0 -7 -7 -10 -16z m149 -99 c14 -13 25
-33 25 -43 0 -30 -38 -72 -66 -72 -30 0 -74 41 -74 70 0 27 43 70 70 70 12 0
32 -11 45 -25z"/>
<path d="M4636 1734 c-4 -14 -2 -32 4 -39 8 -10 6 -15 -9 -20 -28 -9 -54 -70
-48 -112 12 -69 71 -123 136 -123 77 0 150 75 136 140 -5 23 -3 30 8 30 8 0
20 14 26 30 9 28 8 32 -12 39 -12 5 -64 25 -116 45 -51 20 -99 36 -106 36 -7
0 -16 -12 -19 -26z m134 -104 c41 -41 10 -110 -49 -110 -57 0 -87 72 -49 117
16 20 75 16 98 -7z"/>
<path d="M4514 1431 c-34 -21 -64 -75 -64 -115 0 -40 34 -99 68 -118 47 -28
123 -24 161 7 36 31 66 104 57 140 -5 21 -12 26 -34 23 -22 -2 -28 -9 -33 -40
-7 -44 -34 -78 -61 -78 -19 0 -23 10 -10 26 5 5 25 39 46 76 l37 67 -30 16
c-41 20 -99 19 -137 -4z m76 -55 c0 -15 -54 -95 -61 -90 -15 9 -10 56 8 76 14
15 53 26 53 14z"/>
<path d="M4181 1193 c-12 -14 -20 -30 -19 -34 2 -4 72 -62 156 -128 l153 -121
75 94 c41 52 74 98 74 103 0 5 -13 18 -28 30 l-28 20 -48 -63 c-27 -35 -52
-64 -56 -64 -5 0 -59 40 -122 88 -145 112 -133 107 -157 75z"/>
<path d="M4157 972 c-10 -10 -17 -27 -17 -36 0 -13 -5 -16 -16 -12 -17 7 -54
-19 -54 -36 0 -6 39 -52 87 -104 l87 -94 27 26 28 27 -54 60 c-59 65 -67 93
-35 122 l20 18 -22 24 c-26 28 -30 28 -51 5z"/>
<path d="M3959 812 c-130 -65 -88 -265 55 -265 59 0 113 35 137 87 13 30 15
42 6 48 -24 15 -54 8 -65 -16 -15 -34 -52 -57 -80 -49 -30 7 -28 14 15 43 116
79 115 78 97 106 -34 51 -111 73 -165 46z m79 -61 c10 -6 7 -12 -12 -24 -84
-54 -76 -51 -76 -28 0 42 54 74 88 52z"/>
<path d="M3702 788 c-36 -36 7 -91 54 -69 42 19 26 81 -21 81 -12 0 -26 -5
-33 -12z"/>
<path d="M3767 684 l-28 -15 37 -67 c67 -120 89 -155 99 -159 6 -1 21 6 34 16
l24 19 -62 111 c-35 61 -66 111 -69 111 -4 -1 -20 -8 -35 -16z"/>
<path d="M3618 615 c-15 -8 -29 -24 -33 -35 -5 -17 -12 -19 -46 -14 -42 7 -89
-14 -89 -41 0 -17 -17 -20 -22 -5 -2 8 -14 7 -35 -2 l-31 -13 48 -120 c26 -66
53 -120 59 -119 63 6 65 12 31 95 -36 86 -36 122 -2 127 34 5 46 -10 77 -93
15 -41 31 -75 36 -75 15 0 59 23 59 31 0 5 -10 32 -21 61 -36 90 -39 106 -23
123 34 34 55 17 90 -70 15 -38 31 -74 35 -79 7 -8 69 10 69 20 0 18 -75 186
-89 198 -26 24 -81 29 -113 11z"/>
<path d="M2630 382 c0 -109 2 -201 5 -204 3 -2 18 -3 34 0 29 4 30 6 33 66 l3
61 56 6 c66 7 107 32 125 76 19 44 18 81 -4 122 -26 52 -71 71 -169 71 l-83 0
0 -198z m172 97 c36 -42 -19 -109 -78 -95 -21 6 -24 12 -24 50 0 68 6 76 48
70 21 -3 44 -14 54 -25z"/>
<path d="M3175 470 c-94 -62 -81 -207 21 -246 51 -19 97 -13 145 19 43 29 47
50 14 65 -23 11 -30 9 -52 -8 -30 -24 -75 -26 -93 -5 -7 9 -11 17 -9 19 2 1
43 11 92 21 78 16 87 20 87 40 0 29 -39 87 -70 102 -37 19 -101 16 -135 -7z
m105 -58 l22 -18 -52 -12 c-29 -7 -55 -10 -58 -8 -9 10 8 37 30 46 32 12 33
12 58 -8z"/>
<path d="M3021 441 c-16 -16 -20 -17 -25 -5 -4 10 -16 14 -33 12 l-28 -3 2
-100 c1 -55 5 -115 8 -132 5 -30 9 -33 42 -33 l36 0 -7 80 c-8 93 1 115 44
125 28 6 31 10 28 38 -4 39 -37 48 -67 18z"/>
</g>
</svg>
